<svg width="120" height="80" viewBox="0 0 371 146" fill="none" xmlns="http://www.w3.org/2000/svg">
<path d="M155.4 2.44095C149.3 1.44095 139 0.340954 132.4 0.140954C125.8 -0.159046 117 0.040954 112.9 0.540954C108.8 1.04095 101.8 2.54095 97.4 3.84095C92.8 5.24095 86.7 8.14095 82.9 10.641C78.6 13.541 75.5 16.541 73.4 19.841C71.3 23.441 70.3 26.441 70 30.341C69.8 33.441 70.2 37.741 71 39.941C71.7 42.141 73.9 45.741 75.8 47.841C77.8 50.041 81.2 53.041 83.4 54.641L87.4 57.541L128.4 57.441C104.8 45.741 96.3 40.641 93.4 38.141C90.4 35.541 87.7 32.041 86.6 29.341C85.1 25.741 84.9 24.141 85.8 20.941C86.3 18.741 87.8 15.641 89.1 14.041C90.4 12.441 93.2 10.141 95.4 8.84095C97.6 7.54095 102.6 5.84095 106.4 4.94095C110.2 4.14095 117 3.44095 121.4 3.44095C125.9 3.44095 132.9 4.34095 137.4 5.44095C141.8 6.44095 148.3 8.54095 151.9 9.94095C155.5 11.341 162.2 14.541 166.9 16.941C171.6 19.441 175.5 21.341 175.6 21.241C175.8 21.041 176.2 17.941 176.6 14.341L177.4 7.64095C168.9 5.14095 161.5 3.54095 155.4 2.44095Z" fill="black"/>
<path d="M228.4 56.941V2.94095C211.3 2.44095 208.8 2.74095 208.5 3.64095C208.3 4.34095 208.2 16.641 208.2 30.941L208.4 56.941H228.4Z" fill="black"/>
<path d="M41.4 77.4409V76H0V77.4409H41.4Z" fill="black"/>
<path d="M370.5 74H330V75.441L370.5 75.5V74Z" fill="black"/>
<path d="M182 93.441L156.5 93.341L159.6 96.641C161.4 98.441 163.8 101.941 164.9 104.441C166.2 107.341 166.9 111.041 166.9 114.941C166.9 118.541 166.2 122.441 165.1 124.941C164.1 127.041 161.3 130.641 158.9 132.841C156.4 135.041 152.7 137.541 150.5 138.541C148.3 139.441 143.5 140.741 140 141.441C136.1 142.241 130.2 142.441 125.5 142.141C121.1 141.741 113.9 140.341 109.5 139.041C105.1 137.641 98.3 135.041 94.5 133.341C90.6 131.541 84.3 128.341 80.5 126.141C76.6 124.041 73.2 122.541 72.8 123.041C72.5 123.541 71.9 126.541 71.6 129.941L71 135.941C82.2 139.341 88.2 140.941 91.5 141.741C94.8 142.541 100.8 143.841 105 144.541C109.1 145.241 118.5 145.741 126 145.741C134.9 145.741 142.1 145.141 147.5 143.941C151.9 143.041 158.6 140.741 162.5 139.041C166.3 137.241 171.7 133.841 174.4 131.341C177.3 128.641 180.4 124.541 182.1 120.941C184.4 116.041 185 113.541 185 107.641C185 103.441 184.3 98.941 183.5 96.941L182 93.441Z" fill="black"/>
<path d="M229 140.341L228.5 93.841C213.7 93.441 209.1 93.641 208.6 94.041C208.1 94.341 207.8 105.641 207.9 119.041L208 143.341H299C299 132.541 298.8 129.341 298.5 129.341C298.3 129.341 295.9 130.341 293.3 131.441C290.7 132.541 284 134.541 278.5 135.841C273 137.241 264.2 138.741 258.8 139.341C253.4 139.841 244.5 140.341 239 140.341H229Z" fill="black"/>
<path d="M73.87 64.7C72.96 64.2333 71.9917 63.8367 70.965 63.51C69.9383 63.16 68.9583 62.985 68.025 62.985C66.765 62.985 65.7617 63.265 65.015 63.825C64.2917 64.385 63.93 65.155 63.93 66.135C63.93 66.835 64.1867 67.4533 64.7 67.99C65.2133 68.5033 65.8667 68.9583 66.66 69.355C67.4533 69.7283 68.2933 70.09 69.18 70.44C69.95 70.72 70.7083 71.0583 71.455 71.455C72.225 71.8283 72.9133 72.295 73.52 72.855C74.1267 73.415 74.605 74.115 74.955 74.955C75.3283 75.7717 75.515 76.7867 75.515 78C75.515 79.33 75.1767 80.555 74.5 81.675C73.8233 82.7717 72.855 83.6467 71.595 84.3C70.335 84.9533 68.795 85.28 66.975 85.28C65.925 85.28 64.8867 85.1633 63.86 84.93C62.8567 84.6967 61.9 84.3817 60.99 83.985C60.08 83.565 59.24 83.0983 58.47 82.585L60.29 79.4C60.85 79.82 61.4917 80.205 62.215 80.555C62.9383 80.905 63.685 81.185 64.455 81.395C65.225 81.5817 65.9483 81.675 66.625 81.675C67.3483 81.675 68.06 81.5583 68.76 81.325C69.4833 81.0917 70.0783 80.7067 70.545 80.17C71.035 79.6333 71.28 78.9217 71.28 78.035C71.28 77.3117 71.07 76.6933 70.65 76.18C70.23 75.6667 69.6817 75.2233 69.005 74.85C68.3517 74.4533 67.6283 74.1033 66.835 73.8C66.0417 73.4967 65.225 73.1583 64.385 72.785C63.5683 72.4117 62.81 71.9567 62.11 71.42C61.41 70.86 60.8383 70.1833 60.395 69.39C59.9517 68.5967 59.73 67.6167 59.73 66.45C59.73 65.05 60.0567 63.8367 60.71 62.81C61.3633 61.7833 62.2617 60.9667 63.405 60.36C64.5717 59.7533 65.9133 59.4267 67.43 59.38C69.2267 59.38 70.755 59.6017 72.015 60.045C73.2983 60.465 74.43 60.9783 75.41 61.585L73.87 64.7ZM90.2511 85.63C88.8978 85.63 87.7778 85.2217 86.8911 84.405C86.0044 83.565 85.5378 82.4917 85.4911 81.185V70.195H89.4111V79.785C89.4578 80.5083 89.6678 81.1033 90.0411 81.57C90.4144 82.0367 91.0094 82.27 91.8261 82.27C92.5961 82.27 93.2844 82.0367 93.8911 81.57C94.4978 81.08 94.9644 80.415 95.2911 79.575C95.6411 78.735 95.8161 77.79 95.8161 76.74V70.195H99.7361V85H96.2011L95.8861 81.745L95.9911 82.27C95.6878 82.9 95.2561 83.4833 94.6961 84.02C94.1361 84.5333 93.4711 84.93 92.7011 85.21C91.9544 85.49 91.1378 85.63 90.2511 85.63ZM114.104 70.195L114.454 74.395L114.314 73.8C114.734 72.9133 115.306 72.155 116.029 71.525C116.776 70.8717 117.534 70.3817 118.304 70.055C119.074 69.705 119.704 69.53 120.194 69.53L120.019 73.45C118.899 73.3567 117.919 73.5667 117.079 74.08C116.263 74.57 115.621 75.2233 115.154 76.04C114.711 76.8567 114.489 77.72 114.489 78.63V85H110.569V70.195H114.104ZM136.053 85.385C134.303 85.385 132.809 85.0467 131.573 84.37C130.336 83.6933 129.391 82.76 128.738 81.57C128.084 80.3567 127.758 78.9917 127.758 77.475C127.758 75.9817 128.131 74.64 128.878 73.45C129.624 72.26 130.628 71.315 131.888 70.615C133.171 69.8917 134.583 69.53 136.123 69.53C138.153 69.53 139.821 70.125 141.128 71.315C142.458 72.4817 143.344 74.1383 143.788 76.285L131.853 80.31L130.943 78.105L140.253 74.78L139.448 75.235C139.191 74.535 138.771 73.9283 138.188 73.415C137.628 72.9017 136.834 72.645 135.808 72.645C134.991 72.645 134.268 72.8433 133.638 73.24C133.008 73.6133 132.506 74.15 132.133 74.85C131.783 75.5267 131.608 76.3317 131.608 77.265C131.608 78.2217 131.806 79.0617 132.203 79.785C132.599 80.5083 133.136 81.0683 133.813 81.465C134.489 81.8383 135.259 82.025 136.123 82.025C136.729 82.025 137.313 81.92 137.873 81.71C138.433 81.5 138.958 81.22 139.448 80.87L141.233 83.775C140.463 84.265 139.611 84.6617 138.678 84.965C137.768 85.245 136.893 85.385 136.053 85.385ZM153.07 57.7H156.99V85H153.07V57.7ZM169.017 92.105L178.852 70.195H182.422L172.867 92.105H169.017ZM172.832 85.105L165.622 70.195H170.032L175.842 83.11L172.832 85.105ZM208.499 59.52H212.594V81.08H225.159V85H208.499V59.52ZM242.235 85.385C240.485 85.385 238.992 85.0467 237.755 84.37C236.519 83.6933 235.574 82.76 234.92 81.57C234.267 80.3567 233.94 78.9917 233.94 77.475C233.94 75.9817 234.314 74.64 235.06 73.45C235.807 72.26 236.81 71.315 238.07 70.615C239.354 69.8917 240.765 69.53 242.305 69.53C244.335 69.53 246.004 70.125 247.31 71.315C248.64 72.4817 249.527 74.1383 249.97 76.285L238.035 80.31L237.125 78.105L246.435 74.78L245.63 75.235C245.374 74.535 244.954 73.9283 244.37 73.415C243.81 72.9017 243.017 72.645 241.99 72.645C241.174 72.645 240.45 72.8433 239.82 73.24C239.19 73.6133 238.689 74.15 238.315 74.85C237.965 75.5267 237.79 76.3317 237.79 77.265C237.79 78.2217 237.989 79.0617 238.385 79.785C238.782 80.5083 239.319 81.0683 239.995 81.465C240.672 81.8383 241.442 82.025 242.305 82.025C242.912 82.025 243.495 81.92 244.055 81.71C244.615 81.5 245.14 81.22 245.63 80.87L247.415 83.775C246.645 84.265 245.794 84.6617 244.86 84.965C243.95 85.245 243.075 85.385 242.235 85.385ZM265.482 85.385C264.082 85.385 262.811 85.0933 261.667 84.51C260.547 83.9267 259.661 83.0633 259.007 81.92C258.354 80.7533 258.027 79.3183 258.027 77.615C258.027 75.935 258.366 74.5 259.042 73.31C259.742 72.0967 260.652 71.1633 261.772 70.51C262.916 69.8567 264.152 69.53 265.482 69.53C266.906 69.53 268.049 69.81 268.912 70.37C269.799 70.93 270.487 71.595 270.977 72.365L270.767 72.925L271.152 70.195H274.757V85H270.837V81.395L271.222 82.34C271.129 82.48 270.942 82.7133 270.662 83.04C270.382 83.3433 269.997 83.6817 269.507 84.055C269.017 84.4283 268.434 84.7433 267.757 85C267.104 85.2567 266.346 85.385 265.482 85.385ZM266.567 82.165C267.267 82.165 267.897 82.0367 268.457 81.78C269.041 81.5233 269.531 81.1617 269.927 80.695C270.347 80.2283 270.651 79.6683 270.837 79.015V75.795C270.651 75.1883 270.347 74.6633 269.927 74.22C269.507 73.7533 268.994 73.3917 268.387 73.135C267.804 72.8783 267.151 72.75 266.427 72.75C265.634 72.75 264.899 72.9483 264.222 73.345C263.546 73.7417 262.997 74.29 262.577 74.99C262.181 75.69 261.982 76.495 261.982 77.405C261.982 78.2917 262.192 79.0967 262.612 79.82C263.032 80.5433 263.592 81.115 264.292 81.535C264.992 81.955 265.751 82.165 266.567 82.165ZM291.65 85.385C290.25 85.385 289.002 85.0583 287.905 84.405C286.809 83.7517 285.945 82.8183 285.315 81.605C284.685 80.3917 284.37 78.98 284.37 77.37C284.37 75.7133 284.709 74.3017 285.385 73.135C286.062 71.9683 286.984 71.0817 288.15 70.475C289.34 69.845 290.67 69.53 292.14 69.53C293.214 69.53 294.24 69.74 295.22 70.16C296.2 70.5567 296.982 71.14 297.565 71.91L297.495 73.24V57.7H301.38V85H297.46V81.675L297.845 82.62C297.099 83.4133 296.2 84.0783 295.15 84.615C294.124 85.1283 292.957 85.385 291.65 85.385ZM292.91 82.06C293.68 82.06 294.357 81.9317 294.94 81.675C295.547 81.4183 296.06 81.0567 296.48 80.59C296.924 80.1 297.25 79.5283 297.46 78.875V75.725C297.274 75.1183 296.959 74.5817 296.515 74.115C296.095 73.6483 295.57 73.2867 294.94 73.03C294.31 72.7733 293.634 72.645 292.91 72.645C292.07 72.645 291.3 72.8433 290.6 73.24C289.924 73.6367 289.375 74.185 288.955 74.885C288.535 75.585 288.325 76.39 288.325 77.3C288.325 78.1867 288.535 78.9917 288.955 79.715C289.375 80.4383 289.935 81.01 290.635 81.43C291.335 81.85 292.094 82.06 292.91 82.06ZM316.657 85.315C315.537 85.315 314.463 85.1167 313.437 84.72C312.433 84.3233 311.582 83.74 310.882 82.97L312.562 80.765C313.215 81.395 313.857 81.8617 314.487 82.165C315.14 82.445 315.758 82.585 316.342 82.585C316.785 82.585 317.182 82.5383 317.532 82.445C317.905 82.3283 318.197 82.1533 318.407 81.92C318.64 81.6867 318.757 81.3717 318.757 80.975C318.757 80.5083 318.593 80.1467 318.267 79.89C317.94 79.61 317.52 79.3883 317.007 79.225C316.493 79.0383 315.957 78.8633 315.397 78.7C314.113 78.3033 313.157 77.72 312.527 76.95C311.897 76.18 311.582 75.2933 311.582 74.29C311.582 73.52 311.78 72.785 312.177 72.085C312.573 71.3617 313.18 70.7667 313.997 70.3C314.813 69.8333 315.84 69.6 317.077 69.6C318.197 69.6 319.165 69.7283 319.982 69.985C320.822 70.2183 321.603 70.6267 322.327 71.21L320.822 73.555C320.402 73.1583 319.9 72.855 319.317 72.645C318.757 72.4117 318.243 72.2833 317.777 72.26C317.357 72.2367 316.983 72.295 316.657 72.435C316.33 72.5517 316.062 72.7267 315.852 72.96C315.665 73.1933 315.572 73.4617 315.572 73.765C315.548 74.2317 315.7 74.605 316.027 74.885C316.377 75.165 316.82 75.3867 317.357 75.55C317.893 75.7133 318.43 75.8883 318.967 76.075C319.69 76.285 320.332 76.5767 320.892 76.95C321.452 77.3233 321.883 77.7783 322.187 78.315C322.513 78.8283 322.677 79.47 322.677 80.24C322.677 81.1267 322.455 81.9667 322.012 82.76C321.568 83.53 320.903 84.1483 320.017 84.615C319.13 85.0817 318.01 85.315 316.657 85.315Z" fill="black"/>
</svg>
