<svg width="609" height="135" viewBox="0 0 609 135" fill="none" xmlns="http://www.w3.org/2000/svg">
<path d="M179.538 3.7L180.238 0C28.5378 0 23.7378 0.1 22.8378 1.7C22.3378 2.7 21.6378 5.5 21.2378 8C20.8378 10.5 17.6378 28.7 14.1378 48.5C10.5378 68.3 6.33783 92.2 4.73783 101.5C3.13783 110.8 1.23783 121.4 0.637829 125C0.0378293 128.6 -0.162171 132.1 0.137829 132.7C0.637829 133.7 17.0378 134 77.5378 134C119.738 134 154.738 133.6 155.338 133.2C155.938 132.8 158.338 122.2 160.538 109.5C162.838 96.8 165.838 80 167.338 72C168.738 64 170.738 52.8 171.738 47C172.738 41.2 174.738 30 176.138 22C177.638 14 179.038 5.8 179.538 3.7Z" fill="#0CB147"/>
<path d="M608.738 0.5C608.738 0.2 513.538 0 397.238 0C228.838 0 185.638 0.3 185.338 1.3C185.038 1.9 184.638 3.9 184.238 5.5C183.838 7.2 182.738 13.7 181.638 20C180.638 26.3 179.038 35.1 178.238 39.5C177.438 43.9 174.438 59.9 171.738 75L171.335 77.25C168.709 91.939 165.569 109.498 164.238 117.2C162.838 125.4 161.938 132.4 162.238 133C162.538 133.7 233.838 134 373.038 134C543.838 134.1 583.438 133.8 584.338 132.8C584.938 132.1 586.238 127 587.138 121.5C588.038 116 589.238 109.5 589.738 107C590.238 104.5 592.038 94.6 593.738 85C595.338 75.4 599.438 52.5 602.738 34.3C606.038 16 608.738 0.8 608.738 0.5Z" fill="#0CB147"/>
<path d="M144.538 66.5C102.438 24.2 89.8378 11.9 89.2378 12C88.6378 12 76.2378 24.1 61.5378 38.8C46.8378 53.5 34.8378 66 34.7378 66.5C34.7378 67 47.1378 79.9 62.2378 95L89.7378 122.5C129.338 83 141.738 70.4 142.738 69L144.538 66.5Z" fill="#F9FEFC"/>
<path d="M569.838 41.9C568.438 41.2 566.938 40.4 566.538 40.2C566.238 40 563.738 42 561.038 44.7C558.338 47.3 555.138 51.6 553.938 54.3C552.238 57.8 551.938 59.7 552.638 61.8C553.038 63.3 555.538 66.8 558.138 69.5C560.638 72.3 562.738 75.4 562.738 76.5C562.738 77.6 561.438 80.4 559.738 82.8C558.138 85.1 556.238 87.2 555.738 87.5C555.238 87.8 554.738 88.6 554.738 89.3C554.638 89.9 555.938 91.1 557.438 91.9C558.938 92.6 561.038 92.9 561.938 92.6C562.938 92.3 565.738 89.2 568.238 85.8C571.638 81.2 572.838 78.6 572.838 76C572.838 73.9 571.938 71.3 570.538 69.5C569.273 67.8465 567.063 65.3416 565.563 63.6415L565.438 63.5C563.938 61.8 562.638 59.7 562.738 58.8C562.738 57.8 563.238 56 563.938 54.8C564.538 53.5 566.838 50.7 568.938 48.5C571.038 46.3 572.638 44.2 572.638 43.9C572.538 43.6 571.338 42.7 569.838 41.9Z" fill="#F9FEFC"/>
<path d="M229.238 45.9C226.838 44.8 223.038 44.1 219.738 44.1C216.738 44.1 213.138 44.6 211.738 45.1C210.338 45.7 207.738 47.2 206.038 48.6C204.238 49.9 201.538 53.4 200.038 56.2C198.138 60.1 197.338 63 197.338 67C197.338 70.2 198.038 74 199.038 76C199.938 77.9 201.738 80.6 202.938 82.1C204.238 83.5 207.038 85.7 209.238 87C212.338 88.9 214.638 89.5 219.238 89.5C223.638 89.5 226.538 88.8 230.238 87C233.238 85.5 236.338 82.9 237.938 80.5C240.238 77.3 240.738 75.2 241.038 70L241.238 63.5L221.738 63V71C229.538 71 231.938 71.5 232.238 72C232.538 72.5 232.038 74.1 231.238 75.5C230.438 76.9 228.038 78.7 226.038 79.6C223.338 80.7 220.838 81 217.738 80.6C215.238 80.2 212.438 79.2 211.338 78.2C210.338 77.3 208.938 75.3 208.138 73.8C207.338 72.2 206.738 69 206.738 66.5C206.738 64 207.538 60.6 208.538 59C209.438 57.2 212.238 55 214.738 53.8L219.238 51.6L231.238 55.7C236.038 51.4 236.138 51.1 234.738 49.5C233.938 48.5 231.438 46.9 229.238 45.9Z" fill="#F9FEFC"/>
<path d="M274.238 45.9C271.938 44.9 268.038 44 265.238 44C261.338 44 259.138 44.7 255.438 47C252.838 48.7 249.538 51.9 248.038 54.2C245.838 57.5 245.138 59.8 244.838 65.4C244.538 71.5 244.838 73.2 247.038 77.5C248.438 80.2 250.538 83.3 251.638 84.2C252.838 85.2 255.538 86.9 257.738 88C259.938 89.1 263.538 90 265.738 90C267.938 90 271.638 89.1 274.038 88C276.338 86.9 279.838 84.5 281.738 82.6L285.238 79.2L279.538 73.5C274.538 78.6 271.538 80.4 269.238 81C266.838 81.6 264.038 81.6 262.238 81C260.638 80.5 257.938 78.6 256.438 76.8C254.538 74.6 253.738 72.6 253.938 71L254.238 68.5C282.738 68.1 286.738 67.7 286.738 66.7C286.738 66.1 286.138 63.2 285.438 60.5C284.738 57.7 282.838 53.8 281.138 51.7C279.538 49.6 276.438 47 274.238 45.9Z" fill="#F9FEFC"/>
<path d="M321.338 45.7C320.838 44.2 319.038 44 303.738 44C288.438 44 286.638 44.2 286.138 45.7C285.738 46.7 285.738 48.5 286.138 49.7C286.638 51.7 287.438 52 292.938 52.2L299.238 52.5L299.738 90H307.738L308.238 52.5C320.038 52 320.838 51.7 321.338 49.7C321.738 48.5 321.738 46.7 321.338 45.7Z" fill="#F9FEFC"/>
<path d="M352.438 50C349.438 44.9 348.938 44.5 345.038 44.2C342.138 44 340.838 44.3 340.838 45.2C340.738 45.9 342.538 49.3 344.738 52.7C346.938 56.2 348.738 59.2 348.738 59.5C348.738 59.8 350.138 62.2 351.738 65C354.538 69.7 354.738 70.7 354.738 80V90C361.438 90 362.938 89.5 363.238 88.5C363.538 87.7 363.738 83.2 363.738 78.5C363.738 70.5 363.938 69.6 367.438 63.7C369.438 60.3 372.538 54.8 374.338 51.5C376.138 48.2 377.638 45.2 377.738 44.7C377.738 44.3 375.938 44 373.738 44C370.438 44 369.438 44.5 368.038 46.7C367.138 48.3 365.838 50.4 365.238 51.5C364.638 52.6 363.138 55.2 361.938 57.2C360.738 59.3 359.338 60.8 358.738 60.5C358.138 60.2 357.238 59 356.738 57.7C356.138 56.5 354.238 53 352.438 50Z" fill="#F9FEFC"/>
<path d="M409.238 45.8C407.038 44.9 402.938 44.1 400.238 44.1C397.238 44.1 393.638 44.9 391.238 46.1C389.038 47.2 386.438 48.9 385.338 49.8C384.338 50.7 382.338 53.5 380.938 56C378.938 59.5 378.438 61.9 378.438 66.5C378.438 69.9 379.138 74.2 380.038 76.2C381.038 78.3 382.938 81.3 384.438 82.9C386.038 84.4 388.738 86.5 390.438 87.4C392.238 88.3 395.638 89.3 397.938 89.6C400.438 90 403.938 89.7 406.238 89C408.438 88.3 411.838 86.5 413.738 85C415.638 83.5 418.238 80.3 419.438 77.9C420.638 75.5 421.838 71.9 422.138 69.8C422.338 67.8 421.938 63.8 421.238 60.8C420.438 57.8 418.338 53.8 416.538 51.6C414.738 49.4 411.438 46.8 409.238 45.8Z" fill="#F9FEFC"/>
<path d="M435.738 44H427.738V58.8C427.738 66.9 428.238 75.2 428.738 77.2C429.338 79.3 430.938 82.4 432.438 84.1C434.038 85.8 437.038 87.8 439.238 88.7C442.738 90 443.838 90.1 448.138 88.9C450.838 88.1 453.138 87.2 453.338 86.7C453.538 86.3 454.438 86 455.238 86C456.038 86 456.738 86.9 456.738 88C456.738 89.7 457.338 90 460.438 89.7L464.238 89.5L464.638 44H457.238C456.238 67.6 455.538 72.4 454.338 74.7C453.438 76.5 451.738 78.7 450.438 79.5C449.238 80.3 446.838 81 445.238 81C443.638 81 441.238 80.3 439.938 79.5C438.738 78.7 437.338 76.3 436.738 74.2C436.238 72.2 435.738 64.5 435.738 57.3V44Z" fill="#F9FEFC"/>
<path d="M504.738 51.9V43.9C471.438 43.9 469.638 44.1 469.138 45.7C468.738 46.7 468.738 48.5 469.138 49.7C469.638 51.7 470.338 51.9 476.238 51.9H482.738V89.9H490.738L491.238 52.4L504.738 51.9Z" fill="#F9FEFC"/>
<path d="M512.738 43.9H508.738L508.938 66.7L509.238 89.4L516.738 89.9C516.938 74.1 516.938 68.2 516.938 66.7L516.738 63.9L535.238 64.4L535.738 89.9L543.238 89.4V44.4L535.738 43.9L535.238 54.4L517.738 54.9C516.838 49.9 516.638 48 516.838 47.4C516.938 46.9 516.938 45.9 516.838 45.2C516.838 44.4 515.238 43.9 512.738 43.9Z" fill="#F9FEFC"/>
<path fill-rule="evenodd" clip-rule="evenodd" d="M90.0378 17.2C90.5378 17.4 91.6378 18.4 92.3378 19.5C93.6378 21.4 92.4378 22.8 73.0378 42.2C61.7378 53.7 52.0378 63 51.5378 63C51.1378 63 50.0378 62.3 49.2378 61.5C48.4378 60.7 47.6378 59.7 47.5378 59.3C47.3378 58.9 56.7378 49.2 68.2378 37.8C79.7378 26.3 89.5378 17.1 90.0378 17.2ZM97.1378 25C97.7378 25 107.338 34.1 118.538 45.3C129.638 56.4 138.738 66 138.738 66.5C138.838 67 137.938 68.3 136.738 69.2C134.738 71 134.238 70.5 113.738 50C93.4378 29.7 92.8378 28.9 94.3378 27C95.3378 25.9 96.5378 25 97.1378 25ZM89.7378 32C90.0378 31.9 91.1378 32.9 94.2378 36.1L83.0378 47.3C76.8378 53.5 71.7378 58.7 71.7378 59C71.7378 59.3 74.8378 62.7 78.6378 66.5C82.5378 70.3 85.7378 74.2 85.7378 75C85.7378 75.8 85.1378 77.1 84.2378 77.8C83.2378 78.6 82.1378 78.7 80.9378 78.1C80.0378 77.6 75.5378 73.3 70.9378 68.6C66.4378 63.9 62.6378 59.7 62.5378 59.3C62.3378 58.9 68.3378 52.6 75.7378 45.3C83.1378 38 89.4378 32 89.7378 32ZM97.1378 40C97.7378 40 104.338 46.1 125.238 67L123.238 69.1C121.638 70.8 120.838 71 119.238 70.1C118.138 69.5 111.638 63.4 104.738 56.6C92.3378 44.2 92.2378 44.1 94.1378 42.1C95.1378 40.9 96.5378 40 97.1378 40ZM89.7378 47C90.0378 47 91.0378 47.8 92.0378 48.8C93.0378 49.7 93.8378 50.7 93.8378 51C93.8378 51.3 91.2378 54.1 88.1378 57.3C85.0378 60.4 82.2378 63 82.0378 63C81.9378 63 80.8378 62.5 79.7378 62C78.6378 61.5 77.6378 60.5 77.5378 59.8C77.4378 59.1 79.9378 56 83.2378 52.8C86.5378 49.6 89.4378 47 89.7378 47ZM265.538 52.1C266.738 52 268.938 52.6 270.438 53.4C272.038 54.1 274.038 55.9 276.738 60H265.738C259.638 60 254.738 59.7 254.738 59.3C254.738 58.8 255.938 57.3 257.438 55.9C259.038 54.4 260.938 53 261.738 52.7C262.538 52.4 264.238 52.1 265.438 52.1H265.538ZM400.538 53.1C401.238 53 403.338 53.6 405.038 54.3C406.838 55 409.438 57.2 410.738 59.1C412.338 61.3 413.138 63.9 413.138 66.5C413.138 68.7 412.438 72 411.538 73.8C410.538 75.5 408.438 77.7 406.838 78.5C405.238 79.3 402.238 80 400.338 80C398.438 80 395.438 79.3 393.838 78.5C391.838 77.5 390.138 75.3 388.738 72.3C386.838 67.9 386.738 67.1 387.938 63C388.638 60.5 389.938 57.7 390.838 56.7C391.638 55.6 393.938 54.4 395.838 54C397.738 53.5 399.938 53.1 400.538 53.1ZM97.2378 55C97.8378 55 102.538 59.2 107.638 64.3C112.638 69.3 116.838 74 116.838 74.5C116.838 75.1 110.838 81.6 90.0378 102.5L72.4378 84.8C55.2378 67.4 54.8378 67 56.6378 65C57.5378 63.8 58.8378 62.9 59.3378 62.9C59.9378 63 66.8378 69.5 74.8378 77.5C82.8378 85.5 89.5378 92.1 89.8378 92C90.1378 92 94.3378 88.1 107.938 74.5L100.338 66.8C93.1378 59.3 92.9378 58.9 94.4378 57C95.4378 55.9 96.6378 55 97.2378 55ZM89.7378 62C90.0378 62 91.4378 63.1 95.3378 67.1L89.8378 72.5L84.3378 67.1L86.7378 64.5C88.0378 63.1 89.4378 62 89.7378 62ZM44.4378 63C45.2378 63 46.6378 64 47.6378 65.3C48.6378 66.5 58.5378 76.5 89.8378 107.5L127.938 69.5L131.938 74.5L111.138 95.3C99.7378 106.7 89.9378 116 89.3378 116C88.8378 116 77.3378 105 63.8378 91.5C39.5378 67.2 39.3378 67 41.2378 65C42.2378 63.9 43.7378 63 44.4378 63ZM97.8378 70C98.1378 70 99.1378 70.8 100.138 71.8C101.138 72.7 101.938 74 101.838 74.5C101.838 75 99.5378 77.9 96.6378 80.8C93.2378 84.2 90.6378 86 89.4378 85.8C88.4378 85.6 87.0378 84.7 86.4378 83.8C85.5378 82.3 86.3378 81.1 91.3378 76C94.5378 72.7 97.5378 70 97.8378 70Z" fill="#0CB147"/>
</svg>
