<?xml version="1.0" standalone="no"?>
<!DOCTYPE svg PUBLIC "-//W3C//DTD SVG 1.1//EN" "http://www.w3.org/Graphics/SVG/1.1/DTD/svg11.dtd">
<svg xmlns="http://www.w3.org/2000/svg" width="158" height="36" viewBox="0 0 158 36" fill="none">
<rect y="4" width="80" height="28" fill="#374850"/>
<path d="M16.576 9.32V11.552H12.136V26H9.4V11.552H4.936V9.32H16.576ZM25.8029 11.528V16.424H31.5629V18.656H25.8029V23.768H32.2829V26H23.0669V9.296H32.2829V11.528H25.8029ZM38.4608 17.624C38.4608 15.992 38.8368 14.528 39.5888 13.232C40.3568 11.936 41.3888 10.928 42.6848 10.208C43.9968 9.472 45.4288 9.104 46.9808 9.104C48.7568 9.104 50.3328 9.544 51.7088 10.424C53.1008 11.288 54.1088 12.52 54.7328 14.12H51.4448C51.0128 13.24 50.4128 12.584 49.6448 12.152C48.8768 11.72 47.9888 11.504 46.9808 11.504C45.8768 11.504 44.8928 11.752 44.0288 12.248C43.1648 12.744 42.4848 13.456 41.9888 14.384C41.5088 15.312 41.2688 16.392 41.2688 17.624C41.2688 18.856 41.5088 19.936 41.9888 20.864C42.4848 21.792 43.1648 22.512 44.0288 23.024C44.8928 23.52 45.8768 23.768 46.9808 23.768C47.9888 23.768 48.8768 23.552 49.6448 23.12C50.4128 22.688 51.0128 22.032 51.4448 21.152H54.7328C54.1088 22.752 53.1008 23.984 51.7088 24.848C50.3328 25.712 48.7568 26.144 46.9808 26.144C45.4128 26.144 43.9808 25.784 42.6848 25.064C41.3888 24.328 40.3568 23.312 39.5888 22.016C38.8368 20.72 38.4608 19.256 38.4608 17.624ZM74.9753 9.32V26H72.2393V18.704H64.3913V26H61.6553V9.32H64.3913V16.472H72.2393V9.32H74.9753Z" fill="white"/>
<path d="M99.8867 10.1094L100.062 13.8359H99.6172C99.5312 13.1797 99.4141 12.7109 99.2656 12.4297C99.0234 11.9766 98.6992 11.6445 98.293 11.4336C97.8945 11.2148 97.3672 11.1055 96.7109 11.1055H94.4727V23.2461C94.4727 24.2227 94.5781 24.832 94.7891 25.0742C95.0859 25.4023 95.543 25.5664 96.1602 25.5664H96.7109V26H89.9727V25.5664H90.5352C91.207 25.5664 91.6836 25.3633 91.9648 24.957C92.1367 24.707 92.2227 24.1367 92.2227 23.2461V11.1055H90.3125C89.5703 11.1055 89.043 11.1602 88.7305 11.2695C88.3242 11.418 87.9766 11.7031 87.6875 12.125C87.3984 12.5469 87.2266 13.1172 87.1719 13.8359H86.7266L86.9141 10.1094H99.8867ZM113.45 20.6797H107.298L106.22 23.1875C105.954 23.8047 105.822 24.2656 105.822 24.5703C105.822 24.8125 105.935 25.0273 106.161 25.2148C106.396 25.3945 106.896 25.5117 107.661 25.5664V26H102.657V25.5664C103.322 25.4492 103.751 25.2969 103.947 25.1094C104.345 24.7344 104.786 23.9727 105.271 22.8242L110.861 9.74609H111.271L116.802 22.9648C117.247 24.0273 117.65 24.7188 118.009 25.0391C118.376 25.3516 118.884 25.5273 119.532 25.5664V26H113.263V25.5664C113.896 25.5352 114.322 25.4297 114.54 25.25C114.767 25.0703 114.88 24.8516 114.88 24.5938C114.88 24.25 114.724 23.707 114.411 22.9648L113.45 20.6797ZM113.122 19.8125L110.427 13.3906L107.661 19.8125H113.122ZM134.538 9.74609V15.2422H134.104C133.963 14.1875 133.71 13.3477 133.342 12.7227C132.983 12.0977 132.467 11.6016 131.795 11.2344C131.124 10.8672 130.428 10.6836 129.71 10.6836C128.897 10.6836 128.225 10.9336 127.694 11.4336C127.163 11.9258 126.897 12.4883 126.897 13.1211C126.897 13.6055 127.065 14.0469 127.401 14.4453C127.885 15.0312 129.038 15.8125 130.858 16.7891C132.342 17.5859 133.354 18.1992 133.893 18.6289C134.44 19.0508 134.858 19.5508 135.147 20.1289C135.444 20.707 135.592 21.3125 135.592 21.9453C135.592 23.1484 135.124 24.1875 134.186 25.0625C133.256 25.9297 132.057 26.3633 130.588 26.3633C130.127 26.3633 129.694 26.3281 129.288 26.2578C129.045 26.2188 128.542 26.0781 127.776 25.8359C127.018 25.5859 126.538 25.4609 126.335 25.4609C126.139 25.4609 125.983 25.5195 125.866 25.6367C125.756 25.7539 125.674 25.9961 125.62 26.3633H125.186V20.9141H125.62C125.823 22.0547 126.096 22.9102 126.44 23.4805C126.784 24.043 127.307 24.5117 128.01 24.8867C128.721 25.2617 129.499 25.4492 130.342 25.4492C131.319 25.4492 132.088 25.1914 132.651 24.6758C133.221 24.1602 133.506 23.5508 133.506 22.8477C133.506 22.457 133.397 22.0625 133.178 21.6641C132.967 21.2656 132.635 20.8945 132.182 20.5508C131.877 20.3164 131.045 19.8203 129.686 19.0625C128.327 18.2969 127.358 17.6875 126.78 17.2344C126.21 16.7812 125.776 16.2812 125.479 15.7344C125.182 15.1875 125.034 14.5859 125.034 13.9297C125.034 12.7891 125.471 11.8086 126.346 10.9883C127.221 10.1602 128.335 9.74609 129.686 9.74609C130.53 9.74609 131.424 9.95312 132.37 10.3672C132.807 10.5625 133.116 10.6602 133.295 10.6602C133.499 10.6602 133.663 10.6016 133.788 10.4844C133.92 10.3594 134.026 10.1133 134.104 9.74609H134.538ZM151.594 20.6797H145.441L144.363 23.1875C144.097 23.8047 143.965 24.2656 143.965 24.5703C143.965 24.8125 144.078 25.0273 144.305 25.2148C144.539 25.3945 145.039 25.5117 145.805 25.5664V26H140.801V25.5664C141.465 25.4492 141.894 25.2969 142.09 25.1094C142.488 24.7344 142.93 23.9727 143.414 22.8242L149.004 9.74609H149.414L154.945 22.9648C155.39 24.0273 155.793 24.7188 156.152 25.0391C156.519 25.3516 157.027 25.5273 157.676 25.5664V26H151.406V25.5664C152.039 25.5352 152.465 25.4297 152.683 25.25C152.91 25.0703 153.023 24.8516 153.023 24.5938C153.023 24.25 152.867 23.707 152.555 22.9648L151.594 20.6797ZM151.265 19.8125L148.57 13.3906L145.805 19.8125H151.265Z" fill="#0088CC"/>
</svg>